# Blender v2.93.5 OBJ File: 'basic_hex.blend'
# www.blender.org
mtllib basic_hex.mtl
o Hex_Cylinder
v 0.000000 0.000000 -1.000000
v 0.866025 0.000000 -0.500000
v 0.866025 0.000000 0.500000
v 0.000000 0.000000 1.000000
v -0.866025 0.000000 0.500000
v -0.866025 0.000000 -0.500000
v 0.000000 1.000000 -0.919773
v 0.000000 0.930522 -1.000000
v 0.796547 1.000000 -0.459887
v 0.866025 0.930522 -0.500000
v 0.796547 1.000000 0.459887
v 0.866025 0.930522 0.500000
v 0.000000 1.000000 0.919773
v 0.000000 0.930522 1.000000
v -0.796547 1.000000 0.459887
v -0.866025 0.930522 0.500000
v -0.796547 1.000000 -0.459887
v -0.866025 0.930522 -0.500000
vt 0.166667 0.500000
vt 0.166667 0.965261
vt -0.000000 0.965261
vt -0.000000 0.500000
vt 0.666667 0.500000
vt 0.666667 0.965261
vt 0.500000 0.965261
vt 0.500000 0.500000
vt 0.333333 0.965261
vt 0.333333 0.500000
vt 1.000000 0.500000
vt 1.000000 0.965261
vt 0.833333 0.965261
vt 0.833333 0.500000
vt 0.750000 0.490000
vt 0.957846 0.370000
vt 0.957846 0.130000
vt 0.750000 0.010000
vt 0.542154 0.130000
vt 0.542154 0.370000
vt 0.457846 0.370000
vt 0.250000 0.490000
vt 0.250000 0.470746
vt 0.441171 0.360373
vt 0.457846 0.130000
vt 0.441171 0.139627
vt 0.250000 0.010000
vt 0.250000 0.029254
vt 0.042154 0.130000
vt 0.058829 0.139627
vt 0.042154 0.370000
vt 0.058829 0.360373
vn -0.5000 0.0000 -0.8660
vn 0.5000 0.0000 0.8660
vn -0.5000 0.0000 0.8660
vn -1.0000 0.0000 0.0000
vn 0.5000 0.0000 -0.8660
vn 1.0000 0.0000 0.0000
vn 0.0000 -1.0000 0.0000
vn 0.3536 0.7071 -0.6124
vn 0.7071 0.7071 0.0000
vn 0.3536 0.7071 0.6124
vn -0.3536 0.7071 0.6124
vn -0.7071 0.7071 0.0000
vn -0.3536 0.7071 -0.6124
vn 0.0000 1.0000 0.0000
usemtl Material.001
s off
f 6/1/1 18/2/1 8/3/1 1/4/1
f 3/5/2 12/6/2 14/7/2 4/8/2
f 4/8/3 14/7/3 16/9/3 5/10/3
f 5/10/4 16/9/4 18/2/4 6/1/4
f 1/11/5 8/12/5 10/13/5 2/14/5
f 2/14/6 10/13/6 12/6/6 3/5/6
f 1/15/7 2/16/7 3/17/7 4/18/7 5/19/7 6/20/7
f 10/21/8 8/22/8 7/23/8 9/24/8
f 12/25/9 10/21/9 9/24/9 11/26/9
f 14/27/10 12/25/10 11/26/10 13/28/10
f 16/29/11 14/27/11 13/28/11 15/30/11
f 18/31/12 16/29/12 15/30/12 17/32/12
f 8/22/13 18/31/13 17/32/13 7/23/13
f 9/24/14 7/23/14 17/32/14 15/30/14 13/28/14 11/26/14
